<svg width="39" height="36" viewBox="0 0 39 36" fill="none" xmlns="http://www.w3.org/2000/svg">
<g clip-path="url(#clip0_1718_14926)">
<path d="M19.4998 33.3978C21.7072 33.4015 23.8936 32.9691 25.9335 32.1256C27.9734 31.2821 29.8266 30.044 31.3867 28.4824C37.9414 21.9277 37.9414 11.2633 31.3867 4.70857C28.2116 1.53343 23.9902 -0.216187 19.4998 -0.216187C15.0094 -0.216187 10.788 1.53209 7.61285 4.70857C1.05816 11.2633 1.05816 21.9277 7.61285 28.4824C9.173 30.044 11.0262 31.2821 13.0661 32.1256C15.106 32.9691 17.2924 33.4015 19.4998 33.3978ZM19.4998 2.47347C23.272 2.47347 26.817 3.94202 29.4851 6.61016C32.1533 9.2783 33.6205 12.8233 33.6205 16.5955C33.6205 20.3677 32.1519 23.9127 29.4851 26.5809C23.9781 32.0852 15.0188 32.0852 9.51444 26.5809C6.84765 23.9127 5.3791 20.3664 5.3791 16.5955C5.3791 12.8246 6.84765 9.2783 9.51444 6.61016C12.1812 3.94202 15.7275 2.47347 19.4998 2.47347Z" fill="#152A61"/>
<path d="M21.5906 24.1212C21.8568 24.1218 22.1172 24.0432 22.3387 23.8956C22.5602 23.7479 22.7329 23.5378 22.8348 23.2918C22.9366 23.0458 22.9631 22.7751 22.9109 22.5141C22.8587 22.253 22.73 22.0134 22.5414 21.8256L17.3113 16.5955L22.5414 11.3655C22.6662 11.2406 22.7653 11.0924 22.8328 10.9293C22.9004 10.7661 22.9352 10.5913 22.9352 10.4147C22.9352 10.2381 22.9004 10.0633 22.8328 9.90013C22.7653 9.73699 22.6662 9.58876 22.5414 9.4639C22.4165 9.33904 22.2683 9.24 22.1051 9.17242C21.942 9.10485 21.7671 9.07007 21.5906 9.07007C21.414 9.07007 21.2391 9.10485 21.076 9.17242C20.9129 9.24 20.7646 9.33904 20.6398 9.4639L14.4589 15.6447C14.3339 15.7695 14.2348 15.9177 14.1671 16.0809C14.0995 16.244 14.0646 16.4189 14.0646 16.5955C14.0646 16.7721 14.0995 16.947 14.1671 17.1102C14.2348 17.2733 14.3339 17.4215 14.4589 17.5463L20.6398 23.7271C20.7645 23.8522 20.9127 23.9514 21.0759 24.019C21.239 24.0866 21.4139 24.1214 21.5906 24.1212Z" fill="#152A61"/>
</g>
<defs>
<clipPath id="clip0_1718_14926">
<rect width="39" height="36" fill="white" transform="matrix(-1 0 0 1 39 0)"/>
</clipPath>
</defs>
</svg>
