<svg width="25" height="22" viewBox="0 0 25 22" fill="none" xmlns="http://www.w3.org/2000/svg">
<g filter="url(#filter0_d_2334_4209)">
<path opacity="0.4" d="M7.49301 14.8872C8.33254 14.8872 9.02034 15.4982 9.02034 16.253C9.02034 16.9987 8.33254 17.6097 7.49301 17.6097C6.64337 17.6097 5.95557 16.9987 5.95557 16.253C5.95557 15.4982 6.64337 14.8872 7.49301 14.8872ZM18.8721 14.8872C19.7117 14.8872 20.3995 15.4982 20.3995 16.253C20.3995 16.9987 19.7117 17.6097 18.8721 17.6097C18.0225 17.6097 17.3347 16.9987 17.3347 16.253C17.3347 15.4982 18.0225 14.8872 18.8721 14.8872Z" fill="white"/>
<path d="M2.89085 0.00748511L5.30322 0.330952C5.64713 0.385762 5.9 0.636449 5.93034 0.941946L6.12252 2.95463C6.15287 3.24306 6.41585 3.4587 6.73952 3.4587H20.3995C21.0165 3.4587 21.4211 3.64739 21.8257 4.06071C22.2303 4.47403 22.3011 5.06705 22.2101 5.60527L21.2492 11.4996C21.0671 12.6326 19.9747 13.4673 18.6901 13.4673H7.65491C6.30964 13.4673 5.19702 12.5508 5.08576 11.3657L4.1552 1.57091L2.62787 1.3373C2.22328 1.2744 1.94006 0.923976 2.01087 0.564568C2.08167 0.196174 2.47615 -0.0464261 2.89085 0.00748511ZM17.0718 6.78233H14.27C13.8452 6.78233 13.5114 7.07884 13.5114 7.45622C13.5114 7.82461 13.8452 8.13011 14.27 8.13011H17.0718C17.4966 8.13011 17.8304 7.82461 17.8304 7.45622C17.8304 7.07884 17.4966 6.78233 17.0718 6.78233Z" fill="white"/>
</g>
<defs>
<filter id="filter0_d_2334_4209" x="0" y="0" width="24.2451" height="21.6099" filterUnits="userSpaceOnUse" color-interpolation-filters="sRGB">
<feFlood flood-opacity="0" result="BackgroundImageFix"/>
<feColorMatrix in="SourceAlpha" type="matrix" values="0 0 0 0 0 0 0 0 0 0 0 0 0 0 0 0 0 0 127 0" result="hardAlpha"/>
<feOffset dy="2"/>
<feGaussianBlur stdDeviation="1"/>
<feComposite in2="hardAlpha" operator="out"/>
<feColorMatrix type="matrix" values="0 0 0 0 0.188235 0 0 0 0 0.482353 0 0 0 0 0.964706 0 0 0 0.1 0"/>
<feBlend mode="normal" in2="BackgroundImageFix" result="effect1_dropShadow_2334_4209"/>
<feBlend mode="normal" in="SourceGraphic" in2="effect1_dropShadow_2334_4209" result="shape"/>
</filter>
</defs>
</svg>
