<svg width="26" height="19" viewBox="0 0 26 19" fill="none" xmlns="http://www.w3.org/2000/svg">
<g filter="url(#filter0_d_2334_2634)">
<path d="M18 0C20.8284 0 22.2424 0.000226594 23.1211 0.878906C23.9998 1.75759 24 3.17157 24 6V9C24 11.8284 23.9998 13.2424 23.1211 14.1211C22.2424 14.9998 20.8284 15 18 15H8C5.17157 15 3.75759 14.9998 2.87891 14.1211C2.00023 13.2424 2 11.8284 2 9V6C2 3.17157 2.00023 1.75759 2.87891 0.878906C3.75759 0.000226612 5.17157 0 8 0H18Z" fill="white" fill-opacity="0.4"/>
<path d="M2 4H24V7H2V4Z" fill="white"/>
</g>
<defs>
<filter id="filter0_d_2334_2634" x="0" y="0" width="26" height="19" filterUnits="userSpaceOnUse" color-interpolation-filters="sRGB">
<feFlood flood-opacity="0" result="BackgroundImageFix"/>
<feColorMatrix in="SourceAlpha" type="matrix" values="0 0 0 0 0 0 0 0 0 0 0 0 0 0 0 0 0 0 127 0" result="hardAlpha"/>
<feOffset dy="2"/>
<feGaussianBlur stdDeviation="1"/>
<feComposite in2="hardAlpha" operator="out"/>
<feColorMatrix type="matrix" values="0 0 0 0 0.188235 0 0 0 0 0.482353 0 0 0 0 0.964706 0 0 0 0.1 0"/>
<feBlend mode="normal" in2="BackgroundImageFix" result="effect1_dropShadow_2334_2634"/>
<feBlend mode="normal" in="SourceGraphic" in2="effect1_dropShadow_2334_2634" result="shape"/>
</filter>
</defs>
</svg>
