<svg width="46" height="40" viewBox="0 0 46 40" fill="none" xmlns="http://www.w3.org/2000/svg">
<g clip-path="url(#clip0_1718_17882)" filter="url(#filter0_d_1718_17882)">
<path d="M30.5637 35.979C28.4135 35.979 26.2632 35.9686 24.1129 35.9877C23.6483 35.9912 23.5025 35.8606 23.5044 35.4425C23.52 31.6329 23.518 27.8217 23.5044 24.0121C23.5044 23.6097 23.6522 23.4826 24.0916 23.4895C25.2386 23.5087 26.3876 23.5069 27.5347 23.4895C27.8963 23.4843 28.1374 23.5993 28.359 23.8449C29.4439 25.052 30.5521 26.2435 31.6292 27.4558C31.8975 27.7572 32.1891 27.8756 32.6188 27.8739C35.642 27.86 38.6652 27.86 41.6903 27.8739C42.3144 27.8774 43.1135 27.6266 43.5198 27.9889C43.9436 28.3669 43.6326 29.0898 43.6578 29.6611C43.6987 30.5739 43.4965 31.4553 43.0571 32.2757C41.8147 34.5994 39.7422 35.8727 36.8687 35.9668C34.769 36.0365 32.6654 35.9807 30.5637 35.9807V35.979Z" fill="white"/>
<path d="M15.1235 35.9792C13.1015 35.9792 11.0815 35.9844 9.05954 35.9792C5.15562 35.9688 2.08186 33.2096 2.06826 29.7066C2.06826 29.2711 2.09547 28.8356 2.06048 28.4036C2.02548 27.9717 2.22962 27.8584 2.68067 27.8602C5.3967 27.8724 8.11273 27.8654 10.8307 27.8654C11.5753 27.8654 12.3199 27.8393 13.0607 27.8741C13.5545 27.8985 13.8656 27.726 14.163 27.3899C15.1876 26.2315 16.2491 25.101 17.2776 23.9461C17.5634 23.6256 17.8648 23.4706 18.3411 23.4845C19.4395 23.5176 20.54 23.5071 21.6384 23.488C22.072 23.481 22.2314 23.6012 22.2295 24.0071C22.2158 27.8323 22.2158 31.6575 22.2295 35.481C22.2295 35.8573 22.1011 35.9879 21.6734 35.9844C19.4901 35.9688 17.3087 35.9775 15.1254 35.9775L15.1235 35.9792Z" fill="white"/>
<path d="M22.2197 6.25682C22.2197 8.1555 22.206 10.0524 22.2294 11.9511C22.2352 12.3988 22.0699 12.5225 21.5878 12.512C20.4407 12.4859 19.2917 12.4946 18.1446 12.5085C17.8219 12.512 17.6022 12.418 17.4 12.1932C16.2938 10.9652 15.1642 9.75109 14.0638 8.51782C13.8169 8.24086 13.5525 8.13112 13.1597 8.13286C10.0549 8.14505 6.95197 8.14505 3.8471 8.13286C3.28718 8.13112 2.57755 8.35408 2.20621 8.02486C1.81543 7.67822 2.09734 7.03372 2.07012 6.51985C2.01763 5.54961 2.20621 4.61072 2.67282 3.7328C3.91515 1.40039 6.00904 0.104408 8.86699 0.0451831C13.1325 -0.0419123 17.4039 0.0242802 21.6714 0.0138288C22.0952 0.0138288 22.2313 0.144472 22.2274 0.520724C22.2119 2.43334 22.2197 4.34595 22.2197 6.25857V6.25682Z" fill="white"/>
<path d="M30.5579 0.0209406C32.5313 0.0209406 34.5027 0.0174568 36.476 0.0209406C40.2575 0.0296501 43.131 2.25755 43.6209 5.60898C43.7278 6.33535 43.652 7.08437 43.6617 7.82294C43.6637 8.04591 43.5217 8.13126 43.2943 8.13474C43.1329 8.13823 42.9715 8.13997 42.8102 8.13997C39.4156 8.13997 36.0191 8.1452 32.6246 8.133C32.1969 8.133 31.9091 8.24448 31.6389 8.54932C30.5521 9.77388 29.4322 10.9741 28.3357 12.1916C28.1335 12.4164 27.9158 12.5122 27.593 12.5087C26.4285 12.4947 25.2639 12.4913 24.1013 12.5087C23.6736 12.5156 23.5044 12.4094 23.5064 11.9966C23.5219 8.17133 23.5219 4.34784 23.5064 0.52261C23.5064 0.10281 23.6911 0.0104891 24.1091 0.012231C26.2593 0.0244244 28.4096 0.0174568 30.5599 0.0174568L30.5579 0.0209406Z" fill="white"/>
<path d="M9.05143 18.5566C11.1531 18.5566 13.2567 18.5566 15.3584 18.5566C15.9688 18.5566 15.998 18.5845 15.9999 19.1123C16.0019 20.4448 15.9941 21.7791 16.0058 23.1117C16.0077 23.42 15.9144 23.6674 15.6947 23.9043C14.917 24.7386 14.1491 25.5782 13.3908 26.4265C13.1809 26.6617 12.9495 26.7645 12.6073 26.7627C9.29251 26.754 5.97767 26.7505 2.66284 26.7645C2.18651 26.7662 2.06014 26.6129 2.06208 26.2071C2.07764 23.8311 2.07958 21.4551 2.06208 19.0774C2.05819 18.6733 2.21373 18.5461 2.64923 18.5496C4.78394 18.5618 6.91866 18.5549 9.05337 18.5549L9.05143 18.5566Z" fill="white"/>
<path d="M36.6981 18.5566C38.8172 18.5566 40.9345 18.5653 43.0536 18.5496C43.5047 18.5462 43.6777 18.6646 43.6738 19.0931C43.6544 21.4691 43.6544 23.845 43.6738 26.2227C43.6777 26.6478 43.5124 26.7662 43.0556 26.7645C39.7407 26.7505 36.4259 26.754 33.1111 26.7627C32.7903 26.7627 32.5647 26.6721 32.3645 26.4492C31.5849 25.58 30.7955 24.716 30.0023 23.8572C29.8176 23.6569 29.7301 23.4461 29.7321 23.1831C29.7398 21.807 29.7476 20.4292 29.7282 19.053C29.7223 18.6681 29.8857 18.5479 30.2978 18.5514C32.4325 18.5618 34.5673 18.5566 36.702 18.5566H36.6981Z" fill="white"/>
<path d="M9.02808 17.4486C6.91086 17.4486 4.7917 17.4399 2.67448 17.4556C2.21371 17.4591 2.05818 17.3267 2.06012 16.9069C2.07762 14.5309 2.07956 12.155 2.06012 9.77902C2.05623 9.35052 2.23315 9.23729 2.68226 9.23903C5.98154 9.25123 9.27888 9.24948 12.5782 9.23903C12.9359 9.23903 13.1847 9.34703 13.4044 9.59438C14.1704 10.4549 14.9501 11.3067 15.7336 12.155C15.9183 12.3553 16.0058 12.5661 16.0038 12.8291C15.996 14.1913 15.9844 15.5534 16.0096 16.9139C16.0174 17.3424 15.8347 17.4574 15.3836 17.4539C13.2664 17.4382 11.1472 17.4469 9.03002 17.4469L9.02808 17.4486Z" fill="white"/>
<path d="M36.6938 17.4486C34.5746 17.4486 32.4574 17.4399 30.3382 17.4556C29.8775 17.459 29.7142 17.3249 29.7219 16.9069C29.7453 15.5447 29.7336 14.1825 29.7278 12.8203C29.7278 12.5765 29.7958 12.3744 29.9727 12.1828C30.7757 11.3119 31.5748 10.4374 32.3641 9.55601C32.5643 9.33304 32.7957 9.24072 33.1145 9.24072C36.4449 9.24769 39.7773 9.24943 43.1077 9.24072C43.5257 9.24072 43.6734 9.3644 43.6715 9.74588C43.6579 12.1515 43.6559 14.557 43.6715 16.9609C43.6734 17.3528 43.5043 17.4573 43.0979 17.4556C40.9632 17.4434 38.8285 17.4503 36.6938 17.4503V17.4486Z" fill="white"/>
</g>
<defs>
<filter id="filter0_d_1718_17882" x="0" y="0" width="45.7437" height="40" filterUnits="userSpaceOnUse" color-interpolation-filters="sRGB">
<feFlood flood-opacity="0" result="BackgroundImageFix"/>
<feColorMatrix in="SourceAlpha" type="matrix" values="0 0 0 0 0 0 0 0 0 0 0 0 0 0 0 0 0 0 127 0" result="hardAlpha"/>
<feOffset dy="2"/>
<feGaussianBlur stdDeviation="1"/>
<feComposite in2="hardAlpha" operator="out"/>
<feColorMatrix type="matrix" values="0 0 0 0 0.188235 0 0 0 0 0.482353 0 0 0 0 0.964706 0 0 0 0.1 0"/>
<feBlend mode="normal" in2="BackgroundImageFix" result="effect1_dropShadow_1718_17882"/>
<feBlend mode="normal" in="SourceGraphic" in2="effect1_dropShadow_1718_17882" result="shape"/>
</filter>
<clipPath id="clip0_1718_17882">
<rect width="41.7436" height="36" fill="white" transform="translate(2)"/>
</clipPath>
</defs>
</svg>
