<svg width="17" height="21" viewBox="0 0 17 21" fill="none" xmlns="http://www.w3.org/2000/svg">
<path d="M6.75 0C4.275 0 2.25 2.025 2.25 4.5V7.5C0.975 7.5 0 8.475 0 9.75V14.25C0 16.05 0.675 17.775 1.95 19.05C3.225 20.325 4.95 21 6.75 21C9.975 21 12.675 18.75 13.35 15.75H13.5C14.325 15.75 15.075 15.45 15.6 14.85C16.2 14.25 16.5 13.5 16.5 12.75C16.5 12 16.2 11.175 15.6 10.65C15 10.125 14.325 9.75 13.5 9.75C13.5 8.475 12.525 7.5 11.25 7.5V4.5C11.25 2.025 9.225 0 6.75 0ZM14.55 11.7C14.85 12 15 12.375 15 12.75C15 13.125 14.85 13.5 14.55 13.8C14.175 14.175 13.575 14.325 12.975 14.175C12.375 13.95 12 13.425 12 12.75C12 12.375 12.15 12 12.45 11.7C12.6 11.55 12.825 11.4 13.05 11.325C13.2 11.25 13.35 11.25 13.5 11.25C13.875 11.25 14.25 11.4 14.55 11.7ZM12 9.75V10.2C11.775 10.35 11.55 10.5 11.4 10.65C11.025 11.025 10.725 11.475 10.65 12H3.75C3.3 12 3 12.3 3 12.75V14.25C3 14.7 3.3 15 3.75 15C4.2 15 4.5 14.7 4.5 14.25V13.5H6V14.25C6 14.7 6.3 15 6.75 15C7.2 15 7.5 14.7 7.5 14.25V13.5H10.575C10.8 14.25 11.25 14.85 11.85 15.3C11.4 17.7 9.3 19.5 6.75 19.5C5.325 19.5 4.05 18.975 3 18C2.025 17.025 1.5 15.675 1.5 14.25V9.75C1.5 9.3 1.8 9 2.25 9H11.25C11.7 9 12 9.3 12 9.75ZM3.75 7.5V4.5C3.75 2.85 5.1 1.5 6.75 1.5C8.4 1.5 9.75 2.85 9.75 4.5V7.5H3.75Z" fill="#152A61"/>
</svg>
