<svg width="18" height="18" viewBox="0 0 18 18" fill="none" xmlns="http://www.w3.org/2000/svg">
<path d="M8.75 0C7.01942 0 5.32769 0.513178 3.88876 1.47464C2.44983 2.4361 1.32832 3.80267 0.666058 5.40152C0.00379121 7.00037 -0.169488 8.75971 0.168133 10.457C0.505753 12.1544 1.33911 13.7135 2.56282 14.9372C3.78653 16.1609 5.34563 16.9943 7.04296 17.3319C8.7403 17.6695 10.4996 17.4962 12.0985 16.8339C13.6973 16.1717 15.0639 15.0502 16.0254 13.6112C16.9868 12.1723 17.5 10.4806 17.5 8.75C17.4947 6.43098 16.5712 4.20845 14.9314 2.56865C13.2916 0.928851 11.069 0.00528253 8.75 0ZM13.45 6.75L8.45 11.75C8.30938 11.8905 8.11875 11.9693 7.92 11.9693C7.72125 11.9693 7.53063 11.8905 7.39 11.75L4.05 8.45C3.90955 8.30937 3.83066 8.11875 3.83066 7.92C3.83066 7.72125 3.90955 7.53063 4.05 7.39C4.11895 7.31924 4.20137 7.26301 4.29239 7.22461C4.38342 7.18621 4.48121 7.16643 4.58 7.16643C4.6788 7.16643 4.77659 7.18621 4.86762 7.22461C4.95864 7.26301 5.04106 7.31924 5.11 7.39L7.92 10.19L12.39 5.75C12.4462 5.65123 12.524 5.56651 12.6177 5.50224C12.7114 5.43797 12.8185 5.39582 12.9308 5.37898C13.0432 5.36214 13.1579 5.37105 13.2663 5.40503C13.3747 5.43901 13.474 5.49718 13.5567 5.57515C13.6393 5.65312 13.7031 5.74884 13.7434 5.85509C13.7836 5.96134 13.7992 6.07535 13.7889 6.1885C13.7786 6.30165 13.7428 6.41099 13.6841 6.50826C13.6254 6.60553 13.5453 6.68819 13.45 6.75Z" fill="#FF6B2C"/>
</svg>
