<svg width="24" height="24" viewBox="0 0 24 24" fill="none" xmlns="http://www.w3.org/2000/svg">
<g clip-path="url(#clip0_1718_17085)">
<path d="M17 3H7C4.79086 3 3 4.79086 3 7V17C3 19.2091 4.79086 21 7 21H17C19.2091 21 21 19.2091 21 17V7C21 4.79086 19.2091 3 17 3Z" stroke="#152A61" stroke-width="1.5" stroke-linejoin="round"/>
<path d="M14.4201 12.6399L11.0102 16.0498C10.8602 16.1998 10.6801 16.2798 10.4801 16.2998L8.44014 16.4898C7.91014 16.5398 7.46015 16.0898 7.51015 15.5498L7.69014 13.5699C7.71014 13.3599 7.79014 13.1799 7.94014 13.0399L11.3902 9.58984L14.4301 12.6399H14.4201Z" stroke="#152A61" stroke-width="1.5" stroke-linejoin="round"/>
<path d="M16.2501 10.8099L14.4201 12.6399L11.3801 9.58987L13.2101 7.75988C13.5501 7.41988 14.0901 7.41988 14.4201 7.75988L16.2501 9.58987C16.5801 9.92987 16.5801 10.4799 16.2501 10.8099V10.8099Z" stroke="#152A61" stroke-width="1.5" stroke-linejoin="round"/>
</g>
<defs>
<clipPath id="clip0_1718_17085">
<rect width="24" height="24" fill="white"/>
</clipPath>
</defs>
</svg>
