<svg width="30" height="30" viewBox="0 0 30 30" fill="none" xmlns="http://www.w3.org/2000/svg">
<path d="M24.375 13.125H5.15625V16.875H24.375V13.125Z" fill="white" fill-opacity="0.3"/>
<path d="M25.3125 9.375H22.0312C21.5135 9.375 21.0938 9.79473 21.0938 10.3125V19.6875C21.0938 20.2053 21.5135 20.625 22.0312 20.625H25.3125C25.8303 20.625 26.25 20.2053 26.25 19.6875V10.3125C26.25 9.79473 25.8303 9.375 25.3125 9.375Z" fill="#FCFCFE"/>
<path d="M26.25 11.25H27.6562C27.9049 11.25 28.1433 11.3488 28.3192 11.5246C28.495 11.7004 28.5938 11.9389 28.5938 12.1875V17.8125C28.5938 18.0611 28.495 18.2996 28.3192 18.4754C28.1433 18.6512 27.9049 18.75 27.6562 18.75H26.25V11.25Z" fill="white" fill-opacity="0.3"/>
<path d="M4.6875 20.625H7.96875C8.48652 20.625 8.90625 20.2053 8.90625 19.6875L8.90625 10.3125C8.90625 9.79473 8.48652 9.375 7.96875 9.375H4.6875C4.16973 9.375 3.75 9.79473 3.75 10.3125L3.75 19.6875C3.75 20.2053 4.16973 20.625 4.6875 20.625Z" fill="#FCFCFE"/>
<path d="M3.75 18.75H2.34375C2.09511 18.75 1.85665 18.6512 1.68084 18.4754C1.50502 18.2996 1.40625 18.0611 1.40625 17.8125L1.40625 12.1875C1.40625 11.9389 1.50502 11.7004 1.68084 11.5246C1.85665 11.3488 2.09511 11.25 2.34375 11.25H3.75L3.75 18.75Z" fill="white" fill-opacity="0.3"/>
<path d="M22.9688 16.4062C23.2276 16.4062 23.4375 16.1964 23.4375 15.9375C23.4375 15.6786 23.2276 15.4688 22.9688 15.4688C22.7099 15.4688 22.5 15.6786 22.5 15.9375C22.5 16.1964 22.7099 16.4062 22.9688 16.4062Z" fill="white" fill-opacity="0.3"/>
<path d="M22.5 11.25V14.0625C22.5 14.1868 22.5494 14.306 22.6373 14.394C22.7252 14.4819 22.8444 14.5312 22.9688 14.5312C23.0931 14.5312 23.2123 14.4819 23.3002 14.394C23.3881 14.306 23.4375 14.1868 23.4375 14.0625V11.25C23.4375 11.1257 23.3881 11.0065 23.3002 10.9185C23.2123 10.8306 23.0931 10.7812 22.9688 10.7812C22.8444 10.7812 22.7252 10.8306 22.6373 10.9185C22.5494 11.0065 22.5 11.1257 22.5 11.25Z" fill="white" fill-opacity="0.3"/>
<path d="M7.26562 25.5469C7.38993 25.5468 7.50914 25.4974 7.59703 25.4095L9.70641 23.3002C9.79179 23.2118 9.83904 23.0933 9.83797 22.9704C9.8369 22.8475 9.78761 22.73 9.7007 22.6431C9.61379 22.5561 9.49622 22.5068 9.37331 22.5058C9.25041 22.5047 9.132 22.552 9.04359 22.6373L6.93422 24.7467C6.86868 24.8123 6.82405 24.8958 6.80598 24.9867C6.7879 25.0776 6.79718 25.1719 6.83265 25.2575C6.86812 25.3431 6.92819 25.4163 7.00525 25.4678C7.08232 25.5194 7.17293 25.5469 7.26562 25.5469ZM22.403 25.4095C22.4914 25.4949 22.6098 25.5422 22.7327 25.5411C22.8556 25.54 22.9732 25.4907 23.0601 25.4038C23.147 25.3169 23.1963 25.1993 23.1973 25.0764C23.1984 24.9535 23.1512 24.8351 23.0658 24.7467L20.9564 22.6373C20.868 22.552 20.7496 22.5047 20.6267 22.5058C20.5038 22.5068 20.3862 22.5561 20.2993 22.6431C20.2124 22.73 20.1631 22.8475 20.162 22.9704C20.161 23.0933 20.2082 23.2118 20.2936 23.3002L22.403 25.4095ZM15 26.7188C15.1243 26.7188 15.2435 26.6694 15.3315 26.5815C15.4194 26.4935 15.4687 26.3743 15.4687 26.25V22.9688C15.4687 22.8444 15.4194 22.7252 15.3315 22.6373C15.2435 22.5494 15.1243 22.5 15 22.5C14.8757 22.5 14.7565 22.5494 14.6685 22.6373C14.5806 22.7252 14.5312 22.8444 14.5312 22.9688V26.25C14.5312 26.3743 14.5806 26.4935 14.6685 26.5815C14.7565 26.6694 14.8757 26.7188 15 26.7188ZM9.04359 7.36266C9.132 7.44804 9.25041 7.49529 9.37331 7.49422C9.49622 7.49315 9.61379 7.44386 9.7007 7.35695C9.78761 7.27004 9.8369 7.15247 9.83797 7.02956C9.83904 6.90666 9.79179 6.78825 9.70641 6.69984L7.59703 4.59047C7.50862 4.50508 7.39022 4.45783 7.26731 4.4589C7.14441 4.45997 7.02684 4.50927 6.93993 4.59618C6.85302 4.68309 6.80372 4.80066 6.80265 4.92356C6.80158 5.04647 6.84883 5.16487 6.93422 5.25328L9.04359 7.36266ZM20.625 7.5C20.7493 7.49997 20.8685 7.45057 20.9564 7.36266L23.0658 5.25328C23.1512 5.16487 23.1984 5.04647 23.1973 4.92356C23.1963 4.80066 23.147 4.68309 23.0601 4.59618C22.9732 4.50927 22.8556 4.45997 22.7327 4.4589C22.6098 4.45783 22.4914 4.50508 22.403 4.59047L20.2936 6.69984C20.2281 6.7654 20.1834 6.84891 20.1654 6.93983C20.1473 7.03074 20.1566 7.12498 20.192 7.21062C20.2275 7.29626 20.2876 7.36946 20.3646 7.42097C20.4417 7.47248 20.5323 7.49998 20.625 7.5ZM15 7.5C15.1243 7.5 15.2435 7.45061 15.3315 7.36271C15.4194 7.2748 15.4687 7.15557 15.4687 7.03125V3.75C15.4687 3.62568 15.4194 3.50645 15.3315 3.41854C15.2435 3.33064 15.1243 3.28125 15 3.28125C14.8757 3.28125 14.7565 3.33064 14.6685 3.41854C14.5806 3.50645 14.5312 3.62568 14.5312 3.75V7.03125C14.5312 7.15557 14.5806 7.2748 14.6685 7.36271C14.7565 7.45061 14.8757 7.5 15 7.5Z" fill="#FFC107"/>
</svg>
