<svg width="15" height="15" viewBox="0 0 15 15" fill="none" xmlns="http://www.w3.org/2000/svg">
<path d="M5.50745 6.54093L5.01432 8.79968C4.992 8.90213 4.99582 9.00855 5.02542 9.10914C5.05502 9.20974 5.10945 9.30126 5.1837 9.3753C5.25897 9.44748 5.35054 9.50044 5.45063 9.52971C5.55073 9.55898 5.6564 9.56368 5.7587 9.54343L8.01245 9.04905C8.12947 9.02335 8.23664 8.96456 8.3212 8.87968L14.0174 3.18343C14.1916 3.00931 14.3297 2.8026 14.424 2.57509C14.5182 2.34759 14.5667 2.10374 14.5667 1.85749C14.5667 1.61123 14.5182 1.36739 14.424 1.13988C14.3297 0.912378 14.1916 0.705665 14.0174 0.531551C13.6604 0.190387 13.1856 0 12.6918 0C12.198 0 11.7232 0.190387 11.3662 0.531551L5.6787 6.23343C5.59334 6.3174 5.5339 6.42414 5.50745 6.54093ZM12.2499 1.41593C12.3689 1.30201 12.5272 1.23842 12.6918 1.23842C12.8565 1.23842 13.0148 1.30201 13.1337 1.41593C13.2493 1.53382 13.3141 1.69236 13.3141 1.85749C13.3141 2.02262 13.2493 2.18116 13.1337 2.29905L12.6918 2.74093L11.8081 1.85718L12.2499 1.41593ZM6.68745 6.98718L10.9212 2.7428L11.7962 3.62218L7.56057 7.8678L6.4387 8.11405L6.68745 6.98718Z" fill="white"/>
<path d="M2.1875 14.75H11.5625C12.1436 14.7483 12.7002 14.5162 13.1103 14.1046C13.5205 13.693 13.7505 13.1354 13.75 12.5544V7.84375C13.75 7.67799 13.6842 7.51902 13.5669 7.40181C13.4497 7.2846 13.2908 7.21875 13.125 7.21875C12.9592 7.21875 12.8003 7.2846 12.6831 7.40181C12.5658 7.51902 12.5 7.67799 12.5 7.84375V12.5544C12.5008 12.804 12.4026 13.0438 12.2268 13.2211C12.0511 13.3984 11.8121 13.4987 11.5625 13.5H2.1875C1.93786 13.4987 1.69894 13.3984 1.52318 13.2211C1.34742 13.0438 1.24917 12.804 1.25 12.5544V3.19563C1.24917 2.94598 1.34742 2.70621 1.52318 2.52892C1.69894 2.35163 1.93786 2.25132 2.1875 2.25H6.875C7.04076 2.25 7.19973 2.18415 7.31694 2.06694C7.43415 1.94973 7.5 1.79076 7.5 1.625C7.5 1.45924 7.43415 1.30027 7.31694 1.18306C7.19973 1.06585 7.04076 1 6.875 1H2.1875C1.60644 1.00166 1.04977 1.23377 0.639662 1.6454C0.229551 2.05704 -0.000498182 2.61456 8.10068e-07 3.19563V12.5544C-0.000498182 13.1354 0.229551 13.693 0.639662 14.1046C1.04977 14.5162 1.60644 14.7483 2.1875 14.75Z" fill="white"/>
</svg>
