<svg width="18" height="17" viewBox="0 0 18 17" fill="none" xmlns="http://www.w3.org/2000/svg">
<path d="M12.2101 0C11.0675 0.00199314 9.95085 0.341159 9.00012 0.975C8.12835 0.394262 7.11535 0.0609022 6.06907 0.0104359C5.02279 -0.0400303 3.98242 0.194288 3.05879 0.688426C2.13517 1.18256 1.3629 1.91801 0.824262 2.81641C0.285624 3.71481 0.000795466 4.7425 0.000123778 5.79C-0.0057075 6.6749 0.194574 7.549 0.585105 8.34308C0.975637 9.13716 1.54569 9.82941 2.25012 10.365L8.47512 16.575C8.54246 16.6467 8.62379 16.7039 8.71408 16.743C8.80438 16.7821 8.90173 16.8023 9.00012 16.8023C9.09852 16.8023 9.19587 16.7821 9.28617 16.743C9.37646 16.7039 9.45779 16.6467 9.52512 16.575L15.6751 10.425C16.6479 9.69671 17.3669 8.68079 17.7303 7.52116C18.0936 6.36153 18.0829 5.11697 17.6996 3.96378C17.3163 2.81059 16.5799 1.80723 15.5947 1.09583C14.6094 0.384426 13.4253 0.00104805 12.2101 0ZM14.6851 9.3L9.00012 14.985L3.22512 9.225C2.50418 8.6856 1.97122 7.93304 1.70175 7.07391C1.43228 6.21478 1.43995 5.29265 1.72369 4.43812C2.00742 3.5836 2.55283 2.84001 3.28266 2.31269C4.01248 1.78537 4.88973 1.50105 5.79012 1.5C6.78526 1.50086 7.74958 1.84527 8.52012 2.475C8.65357 2.59008 8.82391 2.65338 9.00012 2.65338C9.17633 2.65338 9.34668 2.59008 9.48012 2.475C10.3852 1.78477 11.5273 1.48235 12.6554 1.63425C13.2139 1.70947 13.7522 1.89396 14.2394 2.1772C14.7267 2.46043 15.1534 2.83686 15.4951 3.285C15.8369 3.73314 16.087 4.2442 16.2313 4.78901C16.3756 5.33382 16.4111 5.90171 16.3359 6.46026C16.2607 7.0188 16.0762 7.55706 15.7929 8.04431C15.5097 8.53155 15.1333 8.95823 14.6851 9.3Z" fill="#152A61"/>
</svg>
