<svg width="21" height="20" viewBox="0 0 21 20" fill="none" xmlns="http://www.w3.org/2000/svg">
<g clip-path="url(#clip0_1718_16004)">
<path d="M5.38125 2.5H15.6188C15.9513 2.5 16.2838 2.58336 16.5725 2.73336C16.8525 2.89169 17.0975 3.10832 17.2637 3.37499C17.4212 3.64166 17.5088 3.94165 17.5 4.24998C17.4913 4.55831 17.4038 4.85835 17.2288 5.11668L14 9.97498C13.5538 10.65 13.3088 11.425 13.3088 12.2166V15.65C13.3088 17.2667 12.0662 17.925 10.535 17.1666L8.67125 16.2333C8.39126 16.075 8.14625 15.85 7.97125 15.5833C7.805 15.3167 7.70875 15.025 7.69125 14.7166V12.2166C7.69125 11.425 7.455 10.65 7 9.97498L3.78001 5.11668C3.60501 4.85835 3.5175 4.55831 3.50875 4.24998C3.5 3.94165 3.5875 3.64166 3.745 3.37499C3.91125 3.10832 4.14751 2.88336 4.43626 2.73336C4.72501 2.57502 5.05751 2.5 5.39001 2.5H5.38125Z" stroke="#152A61" stroke-width="1.5" stroke-linecap="round" stroke-linejoin="round"/>
<path d="M8.61874 2.5083L13.7462 10.3833" stroke="#152A61" stroke-width="1.5" stroke-linecap="round" stroke-linejoin="round"/>
</g>
<defs>
<clipPath id="clip0_1718_16004">
<rect width="21" height="20" fill="white"/>
</clipPath>
</defs>
</svg>
