<svg width="30" height="30" viewBox="0 0 30 30" fill="none" xmlns="http://www.w3.org/2000/svg">
<path d="M21.1151 17.1421L15.306 19.6235L11.1509 14.8655L14.3921 9.44352L20.5503 10.8505L21.1151 17.1421ZM9.42855 27.1829L8.66303 25.0778L13.9259 24.6951L17.5106 26.9916L15.6483 28.3312M2.25187 19.1451L4.73977 20.8675L5.79234 15.796L3.68719 11.0115L1.58203 13.2123M7.13197 4.12191L6.74924 6.22707L11.8208 5.07881L15.3612 2.59086L15.0043 1.66895M22.6337 4.02623L20.9112 3.93049L23.3991 7.85375L27.0353 10.6287V8.81064M27.8965 18.4753L27.6094 16.4658L24.7388 19.7192L23.1121 24.4079H24.7388" fill="white"/>
<path d="M14.1234 24.7489L14.0695 24.9469L13.674 24.8385L13.7279 24.6411L15.2924 18.9241L15.3463 18.726L15.7418 18.8344L15.6879 19.0325L14.1234 24.7489ZM9.58008 25.7637L9.71836 25.9155L9.41484 26.1915L9.27656 26.0397L3.73828 19.953L3.6 19.8012L3.90351 19.5252L4.04179 19.677L9.58008 25.7637ZM11.1158 14.6637L11.318 14.6286L11.3883 15.0323L11.1861 15.0674L5.82715 15.9979L5.62558 16.0331L5.55527 15.6288L5.75742 15.5936L11.1158 14.6637ZM24.8607 19.65L25.0254 19.7713L24.7822 20.1018L24.617 19.9799L20.9936 17.3069L20.8283 17.1856L21.0721 16.8551L21.2367 16.977L24.8607 19.65ZM23.8512 23.8917L24.0393 23.8102L24.2016 24.187L24.0135 24.2678L17.2723 27.1799L17.0836 27.2614L16.9213 26.8846L17.1094 26.8032L23.8512 23.8917ZM21.9176 4.08169L22.1162 4.13149L22.016 4.52935L21.8174 4.47954L14.342 2.59634L14.1434 2.54653L14.2436 2.14868L14.4422 2.19907L21.9176 4.08169ZM14.5687 9.33931L14.673 9.51626L14.3197 9.72427L14.2154 9.54731L11.6443 5.18267L11.54 5.0063L11.8934 4.7977L11.9977 4.97466L14.5687 9.33931ZM23.2506 7.71216L23.3918 7.56392L23.6889 7.84634L23.5477 7.99517L20.6988 10.9917L20.5576 11.1405L20.2605 10.8581L20.4018 10.7092L23.2506 7.71216ZM3.5789 11.7973L3.47109 11.9719L3.12187 11.7575L3.22968 11.5823L7.11621 5.26645L7.22402 5.09126L7.57324 5.3063L7.46543 5.48091L3.5789 11.7973Z" fill="white"/>
<path fill-rule="evenodd" clip-rule="evenodd" d="M1.14609 14.9999C1.14609 14.063 1.24042 13.1284 1.42792 12.2103C1.61074 11.3185 1.88144 10.4472 2.23593 9.60928C2.9332 7.96396 3.9416 6.46865 5.20546 5.20537C6.46874 3.9415 7.96406 2.93311 9.60937 2.23584C10.4473 1.88135 11.3185 1.61064 12.2098 1.42783C13.1279 1.24033 14.0631 1.146 15 1.146C15.9369 1.146 16.8721 1.24033 17.7902 1.42783C18.6814 1.61064 19.5527 1.88135 20.3906 2.23584C22.0359 2.93311 23.5312 3.9415 24.7945 5.20537C26.0584 6.46865 27.0668 7.96396 27.7641 9.60928C28.1185 10.4472 28.3893 11.3185 28.5721 12.2097C28.7596 13.1278 28.8539 14.063 28.8539 14.9999C28.8539 15.9368 28.7596 16.872 28.5721 17.7901C28.3893 18.6813 28.1185 19.5526 27.7641 20.3905C27.0668 22.0358 26.0584 23.5312 24.7945 24.7944C23.5312 26.0583 22.0359 27.0667 20.3906 27.764C19.5527 28.1185 18.6814 28.3892 17.7902 28.572C16.8721 28.7595 15.9369 28.8538 15 28.8538C14.0631 28.8538 13.1279 28.7595 12.2098 28.572C11.3185 28.3892 10.4473 28.1185 9.60937 27.764C7.96406 27.0667 6.46874 26.0583 5.20546 24.7944C3.9416 23.5312 2.9332 22.0358 2.23593 20.3905C1.88144 19.5526 1.61074 18.6813 1.42792 17.7901C1.24042 16.872 1.14609 15.9368 1.14609 14.9999ZM2.31796 14.9999C2.31796 14.1415 2.4041 13.2854 2.57578 12.4446C2.74277 11.6296 2.99062 10.8327 3.31523 10.0663C3.95331 8.55986 4.87675 7.19053 6.03456 6.03447C7.19062 4.87666 8.55996 3.95322 10.0664 3.31514C10.8328 2.99053 11.6297 2.74268 12.4447 2.57568C13.2855 2.404 14.1416 2.31787 15 2.31787C15.8584 2.31787 16.7144 2.404 17.5553 2.57568C18.3703 2.74268 19.1672 2.99053 19.9336 3.31514C21.44 3.95322 22.8094 4.87666 23.9654 6.03447C25.1232 7.19053 26.0467 8.55986 26.6848 10.0663C27.0094 10.8327 27.2572 11.6296 27.4242 12.4446C27.5959 13.2854 27.682 14.1415 27.682 14.9999C27.682 15.8583 27.5959 16.7144 27.4242 17.5552C27.2572 18.3702 27.0094 19.1671 26.6848 19.9335C26.0467 21.4399 25.1232 22.8093 23.9654 23.9653C22.8094 25.1231 21.44 26.0466 19.9336 26.6847C19.1672 27.0093 18.3703 27.2571 17.5553 27.4241C16.7144 27.5958 15.8584 27.6819 15 27.6819C14.1416 27.6819 13.2855 27.5958 12.4447 27.4241C11.6297 27.2571 10.8328 27.0093 10.0664 26.6847C8.55996 26.0466 7.19062 25.1231 6.03456 23.9653C4.87675 22.8093 3.95331 21.4399 3.31523 19.9335C2.99062 19.1671 2.74277 18.3702 2.57578 17.5552C2.4041 16.7144 2.31796 15.8583 2.31796 14.9999Z" fill="white"/>
</svg>
