<svg width="20" height="20" viewBox="0 0 20 20" fill="none" xmlns="http://www.w3.org/2000/svg">
<path d="M10.0049 2.94976C11.3759 2.07312 13.0539 1.84884 14.6005 2.33551C15.9457 2.75383 17.0642 3.71471 17.6961 4.99477C18.435 6.54623 18.5356 8.33393 17.9755 9.96124C17.4601 11.4593 16.615 12.8173 15.5049 13.9314C14.7771 14.6795 13.9929 15.3682 13.1593 15.9914L13.1152 16.0289C12.8383 16.2153 12.4659 16.1421 12.277 15.8641C12.1809 15.7298 12.1423 15.5616 12.1701 15.3979C12.1978 15.2342 12.2894 15.0889 12.424 14.9951C13.2062 14.4058 13.9435 13.7572 14.6299 13.055C15.6184 12.0822 16.3733 10.8902 16.8358 9.57171C17.2807 8.25789 17.1907 6.8173 16.5858 5.57157C16.0991 4.59159 15.2416 3.85588 14.2108 3.53405C12.8961 3.11523 11.4638 3.36913 10.3652 4.21572C10.1468 4.38054 9.84831 4.38054 9.6299 4.21572C8.53182 3.36795 7.09892 3.11395 5.78429 3.53405C4.74664 3.84877 3.88053 4.58226 3.38722 5.56408C2.79605 6.80889 2.71148 8.24121 3.15192 9.54924C3.61639 10.8646 4.37107 12.0537 5.35782 13.025C6.81584 14.4493 8.42361 15.7053 10.152 16.7705C10.3718 16.9258 10.4685 17.2077 10.3914 17.4687C10.3144 17.7297 10.0812 17.9105 9.81373 17.9166C9.69316 17.9173 9.57522 17.8807 9.47549 17.8117C7.67506 16.7024 6.00064 15.3935 4.48281 13.9089C3.36661 12.7985 2.5184 11.4395 2.00486 9.93876C1.46418 8.31371 1.57517 6.5369 2.31368 4.99477C2.94558 3.71471 4.06413 2.75383 5.40929 2.33551C6.95589 1.84884 8.63388 2.07312 10.0049 2.94976ZM13.2402 5.41426C14.3366 5.76686 15.117 6.75696 15.2182 7.92371L15.2229 8.02149C15.219 8.15135 15.1747 8.27754 15.095 8.38117C14.9955 8.51071 14.8492 8.59418 14.6888 8.61287C14.352 8.6572 14.0433 8.4163 13.9976 8.07353C13.9669 7.38127 13.5143 6.78254 12.8652 6.57535C12.6239 6.42185 12.5167 6.12026 12.6056 5.84494C12.6945 5.56961 12.9566 5.39179 13.2402 5.41426Z" fill="#152A61"/>
</svg>
