<svg width="36" height="36" viewBox="0 0 36 36" fill="none" xmlns="http://www.w3.org/2000/svg">
<path d="M18.0088 5.30971C20.4767 3.73177 23.4971 3.32806 26.2809 4.20406C28.7022 4.95704 30.7156 6.68662 31.853 8.99074C33.183 11.7834 33.364 15.0012 32.356 17.9304C31.4281 20.6269 29.907 23.0714 27.9089 25.0767C26.5988 26.4232 25.1871 27.663 23.6868 28.7847L23.6074 28.8521C23.1089 29.1877 22.4386 29.0559 22.0986 28.5555C21.9257 28.3138 21.8562 28.0111 21.9061 27.7164C21.956 27.4216 22.1209 27.1601 22.3633 26.9914C23.7711 25.9306 25.0984 24.7632 26.3339 23.4991C28.1132 21.7481 29.472 19.6025 30.3045 17.2292C31.1052 14.8643 30.9432 12.2713 29.8545 10.029C28.9784 8.265 27.4348 6.94073 25.5795 6.36143C23.213 5.60757 20.6348 6.06457 18.6574 7.58844C18.2642 7.88511 17.727 7.88511 17.3338 7.58844C15.3573 6.06245 12.7781 5.60526 10.4117 6.36143C8.54394 6.92793 6.98495 8.24821 6.09699 10.0155C5.03288 12.2561 4.88066 14.8343 5.67346 17.1888C6.5095 19.5564 7.86793 21.6968 9.64407 23.4452C12.2685 26.0088 15.1625 28.2698 18.2735 30.187C18.6692 30.4666 18.8432 30.9739 18.7046 31.4437C18.5659 31.9135 18.1461 32.239 17.6647 32.25C17.4477 32.2513 17.2354 32.1854 17.0559 32.0612C13.8151 30.0644 10.8012 27.7084 8.06906 25.0362C6.05989 23.0375 4.53312 20.5913 3.60874 17.8899C2.63552 14.9648 2.8353 11.7666 4.16463 8.99074C5.30204 6.68662 7.31542 4.95704 9.73672 4.20406C12.5206 3.32806 15.541 3.73177 18.0088 5.30971ZM23.8324 9.74582C25.8059 10.3805 27.2106 12.1627 27.3927 14.2628L27.4012 14.4388C27.3941 14.6726 27.3144 14.8997 27.1711 15.0863C26.992 15.3194 26.7285 15.4697 26.4398 15.5033C25.8336 15.5831 25.2779 15.1495 25.1956 14.5325C25.1403 13.2864 24.3258 12.2087 23.1574 11.8358C22.723 11.5595 22.53 11.0166 22.6901 10.521C22.8502 10.0254 23.3218 9.70536 23.8324 9.74582Z" fill="white"/>
</svg>
