<svg width="30" height="30" viewBox="0 0 30 30" fill="none" xmlns="http://www.w3.org/2000/svg">
<path d="M5.625 11.8966C5.625 8.31819 8.00731 5 11.2695 5C13.5333 5 15.2131 6.48875 16.25 8.60069C17.2868 6.48887 18.9666 5 21.2305 5C24.4931 5 26.875 8.31875 26.875 11.8966C26.875 19.5555 16.25 25 16.25 25C16.25 25 9.09294 21.5545 6.52694 15.9028H12.8655L13.873 14.1117L15.0498 18.2308L17.8057 14.6875H21.25V13.4375H17.1943L15.5752 15.5192L14.252 10.8882L12.1345 14.6528H6.0499C6.18239 15.0805 6.34288 15.4973 6.52694 15.9028L3.75 15.9027V14.6527L6.0499 14.6528C5.77902 13.7783 5.625 12.8582 5.625 11.8966Z" fill="#86FD82"/>
</svg>
