<svg width="36" height="36" viewBox="0 0 36 36" fill="none" xmlns="http://www.w3.org/2000/svg">
<path d="M15.6326 30.3913H9.63261C7.68843 30.3842 6.11211 28.8137 6.09783 26.8696V14.9348C6.10164 14.284 6.39287 13.6681 6.89348 13.2522L7.95 12.4696C8.33571 12.0586 8.37493 11.4316 8.04343 10.9757C7.71193 10.5199 7.10328 10.364 6.59348 10.6044L5.51087 11.4131C4.41881 12.258 3.77075 13.5542 3.75 14.9348V26.8826C3.75717 30.1285 6.38671 32.7581 9.63261 32.7652H15.6326C16.2809 32.7652 16.8065 32.2397 16.8065 31.5913C16.8065 30.943 16.2809 30.4174 15.6326 30.4174V30.3913Z" fill="#FAFAFA"/>
<path d="M31.937 14.9088C31.9232 13.5383 31.2963 12.2461 30.2283 11.3871L21.2152 4.20013C19.2346 2.60809 16.4132 2.60809 14.4326 4.20013L11.5761 6.27404C11.0394 6.65944 10.9168 7.40693 11.3022 7.94361C11.6876 8.48029 12.4351 8.60292 12.9717 8.21752L15.8674 6.05231C17.0039 5.11661 18.6439 5.11661 19.7804 6.05231L28.7935 13.2393C29.3122 13.6505 29.6187 14.273 29.6283 14.9349V26.8827C29.6283 28.8277 28.0515 30.4045 26.1065 30.4045H23.4326C23.1589 30.4045 22.937 30.1826 22.937 29.9088V24.5219C22.937 22.8053 21.5492 21.4117 19.8326 21.4045H15.9196C15.0928 21.4045 14.2999 21.7329 13.7152 22.3175C13.1306 22.9022 12.8022 23.6951 12.8022 24.5219V26.5827C12.8022 27.2311 13.3278 27.7567 13.9761 27.7567C14.6244 27.7567 15.15 27.2311 15.15 26.5827V24.5219C15.1465 24.319 15.2247 24.1232 15.3669 23.9785C15.5092 23.8338 15.7036 23.7523 15.9065 23.7523H19.8196C20.2374 23.7523 20.5761 24.091 20.5761 24.5088V29.9088C20.5833 31.4813 21.8601 32.7523 23.4326 32.7523H26.0413C29.2902 32.7523 31.9239 30.1186 31.9239 26.8697L31.937 14.9088Z" fill="#FAFAFA"/>
</svg>
