<svg width="17" height="16" viewBox="0 0 17 16" fill="none" xmlns="http://www.w3.org/2000/svg">
<path d="M14.625 0C13.3909 0 12.375 0.975938 12.375 2.18419C12.375 2.53463 12.5207 2.889 12.7153 3.25406C12.9105 3.61969 13.1642 3.98981 13.4156 4.32619C13.7305 4.74532 14.0656 5.14892 14.4197 5.53556C14.446 5.56366 14.4778 5.58606 14.5131 5.60138C14.5484 5.61669 14.5865 5.62459 14.625 5.62459C14.6635 5.62459 14.7016 5.61669 14.7369 5.60138C14.7722 5.58606 14.804 5.56366 14.8303 5.53556C14.8303 5.53556 15.3326 4.99894 15.8355 4.32619C16.0869 3.98981 16.3395 3.61913 16.5347 3.25406C16.7293 2.889 16.875 2.53463 16.875 2.18419C16.875 0.975938 15.8591 0 14.625 0ZM14.625 0.5625C15.5655 0.5625 16.3125 1.28981 16.3125 2.18419C16.3125 2.35913 16.2129 2.66344 16.0391 2.98913C15.8647 3.31538 15.624 3.66806 15.3832 3.99038C15.0041 4.49663 14.7701 4.74469 14.625 4.90444C14.4804 4.74469 14.2448 4.49719 13.8656 3.99038C13.6249 3.66806 13.3864 3.31538 13.212 2.98913C13.0376 2.66344 12.9375 2.35913 12.9375 2.18419C12.9375 1.28981 13.6845 0.5625 14.625 0.5625ZM14.625 1.269C14.1621 1.269 13.7812 1.64981 13.7812 2.11275C13.7812 2.57513 14.1621 2.9565 14.625 2.9565C15.0879 2.9565 15.4688 2.57513 15.4688 2.11275C15.4688 1.64981 15.0879 1.269 14.625 1.269ZM14.625 1.8315C14.7836 1.8315 14.9062 1.95413 14.9062 2.11275C14.9062 2.27138 14.7836 2.394 14.625 2.394C14.5879 2.39453 14.5511 2.38762 14.5167 2.37367C14.4824 2.35973 14.4512 2.33903 14.4249 2.31281C14.3987 2.28658 14.378 2.25537 14.3641 2.221C14.3501 2.18664 14.3432 2.14983 14.3438 2.11275C14.3438 1.95413 14.4664 1.8315 14.625 1.8315ZM13.9759 5.36456L13.0112 5.9445L13.3009 6.426L14.2656 5.84606L13.9759 5.36456ZM12.5286 6.23363L11.5644 6.81356L11.8553 7.29506L12.8188 6.71513L12.5286 6.23363ZM11.0829 7.10269L10.8006 7.27144L10.6622 7.35581L10.6644 7.51556L10.6734 8.31206L11.2359 8.30588L11.2292 7.67025L11.3721 7.58475L11.0829 7.10269ZM11.2421 8.86838L10.6808 8.87456L10.6931 9.99956L11.2556 9.99225L11.2421 8.86838ZM2.25 9.5625C1.01587 9.5625 0 10.5396 0 11.7478C0 12.0983 0.145688 12.4515 0.340313 12.8166C0.5355 13.1822 0.788063 13.5534 1.0395 13.8898C1.35424 14.3089 1.68972 14.7119 2.04469 15.0975C2.07033 15.125 2.10123 15.1471 2.13556 15.1625C2.16989 15.1778 2.20696 15.1862 2.24456 15.1869C2.28216 15.1877 2.31954 15.181 2.35449 15.1671C2.38943 15.1531 2.42123 15.1324 2.448 15.1059L3.168 14.8995L3.03131 14.4214C3.17194 14.2509 3.30356 14.0991 3.45938 13.8898C3.71081 13.5534 3.9645 13.1816 4.15969 12.8166C4.35431 12.4515 4.5 12.0983 4.5 11.7478C4.5 10.5396 3.48412 9.5625 2.25 9.5625ZM2.25 10.125C3.1905 10.125 3.9375 10.8534 3.9375 11.7478C3.9375 11.9228 3.83681 12.2248 3.663 12.5505C3.46969 12.9 3.25124 13.235 3.00937 13.5529C2.63081 14.0591 2.39512 14.3061 2.25 14.4658C2.10544 14.3061 1.87088 14.0591 1.49175 13.5529C1.251 13.2306 1.01025 12.8768 0.835875 12.5505C0.6615 12.2248 0.5625 11.9228 0.5625 11.7478C0.5625 10.8534 1.3095 10.125 2.25 10.125ZM11.2618 10.557L10.6993 10.5626L10.7106 11.5279H10.8337L10.8349 11.8069H11.2764L11.2731 11.5245L11.2618 10.557ZM2.25 10.8315C1.78706 10.8315 1.40625 11.2123 1.40625 11.6753C1.40625 12.1376 1.78706 12.519 2.25 12.519C2.71294 12.519 3.09375 12.1376 3.09375 11.6753C3.09375 11.2123 2.71294 10.8315 2.25 10.8315ZM10.2701 11.2444L9.144 11.25L9.14625 11.8125L10.2724 11.8069L10.2701 11.2444ZM8.5815 11.25L7.45763 11.2556L7.45988 11.8181L8.58375 11.8125L8.5815 11.25ZM2.25 11.394C2.40862 11.394 2.53125 11.5166 2.53125 11.6753C2.53125 11.8339 2.40862 11.9565 2.25 11.9565C2.21292 11.957 2.17611 11.9501 2.14175 11.9362C2.10738 11.9222 2.07617 11.9015 2.04994 11.8753C2.02372 11.8491 2.00302 11.8179 1.98908 11.7835C1.97513 11.7491 1.96822 11.7123 1.96875 11.6753C1.96875 11.5166 2.09138 11.394 2.25 11.394ZM6.78206 11.574L6.05813 12.4369L6.48956 12.7986L7.21237 11.9363L6.78206 11.574ZM5.69644 12.8672L4.97475 13.7295L5.40506 14.0912L6.12844 13.2289L5.69644 12.8672ZM4.635 13.8921L3.55387 14.2031L3.70913 14.7431L4.79137 14.4338L4.635 13.8921Z" fill="url(#paint0_linear_1718_15242)"/>
<defs>
<linearGradient id="paint0_linear_1718_15242" x1="0" y1="7.59375" x2="15.1875" y2="7.59375" gradientUnits="userSpaceOnUse">
<stop/>
<stop offset="1" stop-color="#808080"/>
</linearGradient>
</defs>
</svg>
