<svg width="16" height="20" viewBox="0 0 16 20" fill="none" xmlns="http://www.w3.org/2000/svg">
<path d="M8 8.78251C8.39556 8.78251 8.78224 8.66521 9.11114 8.44545C9.44004 8.22569 9.69638 7.91333 9.84776 7.54788C9.99913 7.18242 10.0387 6.78029 9.96157 6.39233C9.8844 6.00437 9.69392 5.648 9.41421 5.3683C9.13451 5.08859 8.77814 4.89811 8.39018 4.82094C8.00222 4.74377 7.60009 4.78338 7.23463 4.93475C6.86918 5.08613 6.55682 5.34247 6.33706 5.67137C6.1173 6.00027 6 6.38695 6 6.78251C6 7.31294 6.21071 7.82165 6.58579 8.19672C6.96086 8.5718 7.46957 8.78251 8 8.78251ZM7.29 15.6925C7.38296 15.7862 7.49356 15.8606 7.61542 15.9114C7.73728 15.9622 7.86799 15.9883 8 15.9883C8.13201 15.9883 8.26272 15.9622 8.38458 15.9114C8.50644 15.8606 8.61704 15.7862 8.71 15.6925L12.8 11.5925C13.75 10.6431 14.397 9.4332 14.6593 8.11597C14.9216 6.79874 14.7873 5.43332 14.2735 4.1924C13.7597 2.95148 12.8894 1.89082 11.7727 1.14457C10.656 0.398316 9.34309 0 8 0C6.65691 0 5.344 0.398316 4.22731 1.14457C3.11062 1.89082 2.24033 2.95148 1.72652 4.1924C1.2127 5.43332 1.07845 6.79874 1.34073 8.11597C1.60301 9.4332 2.25005 10.6431 3.2 11.5925L7.29 15.6925ZM3.23 6.32251C3.29833 5.60953 3.52502 4.9208 3.89352 4.30662C4.26203 3.69245 4.76305 3.16832 5.36 2.77251C6.1442 2.25761 7.06186 1.98327 8 1.98327C8.93814 1.98327 9.8558 2.25761 10.64 2.77251C11.233 3.16696 11.7311 3.68791 12.0987 4.29789C12.4663 4.90788 12.6942 5.59174 12.7659 6.3003C12.8376 7.00885 12.7514 7.7245 12.5135 8.39577C12.2756 9.06703 11.8919 9.67724 11.39 10.1825L8 13.5725L4.61 10.1825C4.10752 9.68214 3.72293 9.07604 3.48421 8.40831C3.24548 7.74058 3.15864 7.02803 3.23 6.32251ZM15 17.9825H1C0.734784 17.9825 0.48043 18.0879 0.292893 18.2754C0.105357 18.4629 0 18.7173 0 18.9825C0 19.2477 0.105357 19.5021 0.292893 19.6896C0.48043 19.8772 0.734784 19.9825 1 19.9825H15C15.2652 19.9825 15.5196 19.8772 15.7071 19.6896C15.8946 19.5021 16 19.2477 16 18.9825C16 18.7173 15.8946 18.4629 15.7071 18.2754C15.5196 18.0879 15.2652 17.9825 15 17.9825Z" fill="#152A61"/>
</svg>
