<svg width="24" height="24" viewBox="0 0 24 24" fill="none" xmlns="http://www.w3.org/2000/svg">
<path d="M3.57 12.75H15C15.1989 12.75 15.3897 12.6709 15.5303 12.5303C15.671 12.3896 15.75 12.1989 15.75 12C15.75 11.8011 15.671 11.6103 15.5303 11.4696C15.3897 11.329 15.1989 11.25 15 11.25H3.57L6.48 8.82746C6.63316 8.70016 6.72948 8.51723 6.74777 8.31891C6.76605 8.12059 6.70481 7.92312 6.5775 7.76996C6.51447 7.69412 6.43711 7.63144 6.34985 7.5855C6.2626 7.53956 6.16714 7.51125 6.06894 7.5022C5.87063 7.48391 5.67316 7.54516 5.52 7.67246L1.02 11.4225C0.935072 11.4928 0.866709 11.5811 0.819786 11.6809C0.772863 11.7807 0.748535 11.8897 0.748535 12C0.748535 12.1103 0.772863 12.2192 0.819786 12.319C0.866709 12.4188 0.935072 12.5071 1.02 12.5775L5.52 16.3275C5.65494 16.4393 5.82476 16.5003 6 16.5C6.11019 16.5001 6.21905 16.476 6.31887 16.4294C6.41868 16.3827 6.50699 16.3146 6.5775 16.23C6.64065 16.1542 6.68823 16.0667 6.71752 15.9725C6.7468 15.8783 6.75721 15.7792 6.74815 15.681C6.7391 15.5828 6.71075 15.4873 6.66474 15.4C6.61872 15.3128 6.55595 15.2354 6.48 15.1725L3.57 12.75Z" fill="white"/>
<path d="M15.0001 3.75C13.3951 3.75024 11.8249 4.21867 10.4821 5.0979C9.13931 5.97712 8.08213 7.22895 7.44011 8.7C7.40039 8.79057 7.37897 8.8881 7.37709 8.98697C7.37521 9.08585 7.3929 9.18412 7.42915 9.27614C7.46539 9.36815 7.51948 9.45209 7.5883 9.52311C7.65711 9.59414 7.73929 9.65086 7.83011 9.69C8.01219 9.76788 8.21768 9.77058 8.40175 9.69751C8.58581 9.62445 8.73351 9.48155 8.81261 9.3C9.43291 7.87872 10.5237 6.71436 11.9015 6.00272C13.2793 5.29108 14.8601 5.07555 16.3782 5.39238C17.8962 5.70922 19.2589 6.53908 20.237 7.74244C21.2151 8.9458 21.7491 10.4493 21.7491 12C21.7491 13.5507 21.2151 15.0542 20.237 16.2576C19.2589 17.4609 17.8962 18.2908 16.3782 18.6076C14.8601 18.9245 13.2793 18.7089 11.9015 17.9973C10.5237 17.2856 9.43291 16.1213 8.81261 14.7C8.73351 14.5184 8.58581 14.3756 8.40175 14.3025C8.21768 14.2294 8.01219 14.2321 7.83011 14.31C7.73929 14.3491 7.65711 14.4059 7.5883 14.4769C7.51948 14.5479 7.46539 14.6319 7.42915 14.7239C7.3929 14.8159 7.37521 14.9141 7.37709 15.013C7.37897 15.1119 7.40039 15.2094 7.44011 15.3C8.03509 16.6633 8.98757 17.8403 10.1967 18.7066C11.4059 19.5728 12.8268 20.0961 14.309 20.2209C15.7912 20.3457 17.2796 20.0675 18.6166 19.4157C19.9536 18.7639 21.0895 17.7627 21.9041 16.5182C22.7188 15.2736 23.1817 13.832 23.2441 12.3459C23.3065 10.8597 22.9659 9.38438 22.2584 8.07597C21.5509 6.76755 20.5028 5.67475 19.2251 4.91322C17.9474 4.1517 16.4876 3.74977 15.0001 3.75Z" fill="white"/>
</svg>
