<svg width="24" height="24" viewBox="0 0 24 24" fill="none" xmlns="http://www.w3.org/2000/svg">
<path d="M12 0C9.62663 0 7.30655 0.703788 5.33316 2.02236C3.35977 3.34094 1.8217 5.21509 0.913451 7.4078C0.00519943 9.60051 -0.232441 12.0133 0.230582 14.3411C0.693605 16.6689 1.83649 18.8071 3.51472 20.4853C5.19295 22.1635 7.33115 23.3064 9.65892 23.7694C11.9867 24.2324 14.3995 23.9948 16.5922 23.0866C18.7849 22.1783 20.6591 20.6402 21.9776 18.6668C23.2962 16.6935 24 14.3734 24 12C23.9966 8.81846 22.7312 5.76821 20.4815 3.51852C18.2318 1.26883 15.1815 0.00344108 12 0ZM12 22C10.0222 22 8.08879 21.4135 6.4443 20.3147C4.79981 19.2159 3.51809 17.6541 2.76121 15.8268C2.00433 13.9996 1.8063 11.9889 2.19215 10.0491C2.578 8.10929 3.53041 6.32746 4.92894 4.92893C6.32746 3.53041 8.10929 2.578 10.0491 2.19215C11.9889 1.8063 13.9996 2.00433 15.8268 2.7612C17.6541 3.51808 19.2159 4.79981 20.3147 6.4443C21.4135 8.08879 22 10.0222 22 12C21.9971 14.6513 20.9426 17.1931 19.0679 19.0679C17.1931 20.9426 14.6513 21.9971 12 22Z" fill="#152A61"/>
<path d="M10.6411 6.23186C10.5403 6.14769 10.4238 6.0842 10.2984 6.04502C10.173 6.00585 10.0411 5.99176 9.91031 6.00355C9.77947 6.01534 9.65224 6.05279 9.53587 6.11376C9.41951 6.17472 9.31629 6.25801 9.23211 6.35886C9.14793 6.45972 9.08445 6.57617 9.04527 6.70156C9.0061 6.82695 8.992 6.95883 9.0038 7.08967C9.01559 7.2205 9.05304 7.34774 9.114 7.4641C9.17497 7.58047 9.25826 7.68369 9.35911 7.76786L14.4371 11.9999L9.35911 16.2319C9.15542 16.4019 9.02761 16.6458 9.0038 16.9101C8.97998 17.1743 9.06211 17.4372 9.23211 17.6409C9.40211 17.8446 9.64607 17.9724 9.91031 17.9962C10.1745 18.02 10.4374 17.9379 10.6411 17.7679L16.6411 12.7679C16.7537 12.674 16.8442 12.5566 16.9063 12.4239C16.9685 12.2911 17.0007 12.1464 17.0007 11.9999C17.0007 11.8533 16.9685 11.7086 16.9063 11.5759C16.8442 11.4432 16.7537 11.3257 16.6411 11.2319L10.6411 6.23186Z" fill="#152A61"/>
</svg>
