<svg width="22" height="26" viewBox="0 0 22 26" fill="none" xmlns="http://www.w3.org/2000/svg">
<g filter="url(#filter0_d_1718_17891)">
<path d="M3 14C4.86927 14 6.38462 12.6569 6.38462 11C6.38462 9.34315 4.86927 8 3 8" stroke="white" stroke-width="2" stroke-linecap="round" stroke-linejoin="round"/>
<path d="M9.76904 5.00283C10.6435 5.791 11.3372 6.72697 11.8105 7.75722C12.2838 8.78748 12.5275 9.89181 12.5275 11.0071C12.5275 12.1223 12.2838 13.2267 11.8105 14.2569C11.3372 15.2872 10.6435 16.2231 9.76904 17.0113M14.2052 1C17.1438 3.65244 18.7947 7.24945 18.7947 11C18.7947 14.7506 17.1438 18.3476 14.2052 21" stroke="white" stroke-width="2" stroke-linecap="round" stroke-linejoin="round"/>
</g>
<defs>
<filter id="filter0_d_1718_17891" x="0" y="0" width="21.7949" height="26" filterUnits="userSpaceOnUse" color-interpolation-filters="sRGB">
<feFlood flood-opacity="0" result="BackgroundImageFix"/>
<feColorMatrix in="SourceAlpha" type="matrix" values="0 0 0 0 0 0 0 0 0 0 0 0 0 0 0 0 0 0 127 0" result="hardAlpha"/>
<feOffset dy="2"/>
<feGaussianBlur stdDeviation="1"/>
<feComposite in2="hardAlpha" operator="out"/>
<feColorMatrix type="matrix" values="0 0 0 0 0.188235 0 0 0 0 0.482353 0 0 0 0 0.964706 0 0 0 0.1 0"/>
<feBlend mode="normal" in2="BackgroundImageFix" result="effect1_dropShadow_1718_17891"/>
<feBlend mode="normal" in="SourceGraphic" in2="effect1_dropShadow_1718_17891" result="shape"/>
</filter>
</defs>
</svg>
