<svg width="30" height="29" viewBox="0 0 30 29" fill="none" xmlns="http://www.w3.org/2000/svg">
<path d="M17.0507 23.6465C17.3975 23.3473 17.9298 23.3288 18.3 23.6224C18.7073 23.9453 18.7644 24.5237 18.4276 24.9142C17.5971 25.9553 16.3123 26.5712 14.9453 26.5834L14.6739 26.5724C13.4135 26.4839 12.247 25.8832 11.4741 24.9142L11.392 24.8034C11.1505 24.4207 11.2314 23.916 11.6017 23.6224C12.009 23.2994 12.6122 23.3542 12.9491 23.7447C13.0971 23.9342 13.2726 24.1025 13.4703 24.2444C13.9989 24.6216 14.6627 24.7811 15.3144 24.6873C15.9661 24.5934 16.5518 24.2541 16.9415 23.7447H16.9526L17.0507 23.6465ZM14.9564 2.41675C18.7935 2.41675 23.0965 5.03223 23.5844 9.2319V11.4221C23.751 12.2126 24.1338 12.9464 24.6934 13.5485C24.7266 13.5849 24.7563 13.624 24.7822 13.6655C25.2896 14.4039 25.5807 15.2595 25.625 16.1427L25.5917 16.366C25.63 17.5747 25.2126 18.7561 24.4162 19.6938C23.3991 20.7547 22.0087 21.4174 20.5125 21.5545C16.8271 21.9455 13.1079 21.9455 9.42249 21.5545C7.94818 21.4081 6.58196 20.7456 5.58534 19.6938C4.77577 18.7696 4.34593 17.5938 4.37653 16.3873V16.2384C4.4375 15.3287 4.75151 14.4513 5.28591 13.6974L5.37463 13.591C5.9304 12.9864 6.31257 12.2536 6.48363 11.4646V9.27442L6.54496 9.15208C6.7314 8.84145 7.09454 8.65977 7.47486 8.69955C7.90272 8.74429 8.24631 9.05823 8.31348 9.4658V11.656C8.3178 11.6949 8.3178 11.7341 8.31348 11.773C8.08257 12.8698 7.55477 13.8892 6.78306 14.7287C6.48587 15.1825 6.31765 15.703 6.2951 16.2384V16.4723C6.27048 17.2254 6.53041 17.9616 7.02704 18.5456C7.71558 19.2274 8.63633 19.6499 9.62211 19.7364C13.19 20.1085 16.7894 20.1085 20.3572 19.7364C21.3699 19.6473 22.3132 19.2046 23.0078 18.4924C23.48 17.9223 23.7274 17.2107 23.7064 16.483V16.2384C23.6837 15.7012 23.5196 15.1782 23.2296 14.718C22.4257 13.8881 21.8669 12.8679 21.6104 11.7623C21.6061 11.7235 21.6061 11.6842 21.6104 11.6454V9.44454C21.2888 6.23366 17.9507 4.24546 15.0451 4.24546C13.8098 4.24274 12.5948 4.54676 11.5185 5.12792L11.3867 5.19118C11.1157 5.29697 10.8056 5.27839 10.5479 5.13481C10.2472 4.9673 10.0655 4.65619 10.0736 4.3229C10.0818 3.98961 10.2784 3.68698 10.5869 3.53311C11.9207 2.81075 13.4246 2.42651 14.9564 2.41675Z" fill="white"/>
</svg>
