<svg width="36" height="36" viewBox="0 0 36 36" fill="none" xmlns="http://www.w3.org/2000/svg">
<path d="M14.8268 22.151C16.9816 21.9662 19.1482 21.9662 21.303 22.151C22.4814 22.23 23.6518 22.4021 24.8034 22.6657C27.2942 23.1673 28.9199 24.1571 29.6016 25.6089C30.1462 26.8152 30.1318 28.2024 29.5623 29.3969C28.8674 30.8487 27.2418 31.8385 24.7116 32.3533C23.5639 32.6116 22.398 32.7793 21.2244 32.8548C19.9265 33 18.8253 33 17.8027 33H17.3963C16.817 32.9372 16.3778 32.4449 16.3778 31.8583C16.3778 31.2718 16.817 30.7795 17.3963 30.7167L18.2933 30.7165C19.1923 30.706 20.0969 30.6639 21.0015 30.5847C22.0687 30.5148 23.1291 30.3648 24.1741 30.136C25.9701 29.74 27.0976 29.1725 27.4516 28.4202C27.7269 27.8447 27.7269 27.1743 27.4516 26.5988C27.0976 25.8333 25.9701 25.2394 24.2134 24.883C23.1523 24.6434 22.0739 24.4889 20.9884 24.4211C18.9605 24.2363 16.9202 24.2363 14.8923 24.4211C13.8208 24.491 12.756 24.641 11.7066 24.8698C9.91056 25.2658 8.79622 25.8333 8.42914 26.5856C8.29908 26.8713 8.232 27.182 8.23249 27.4963C8.23176 27.8149 8.29881 28.1299 8.42914 28.4202C9.05312 29.2781 10.0025 29.8373 11.0511 29.9644L11.2032 30.0057C11.5482 30.1255 11.819 30.4064 11.9245 30.7648C12.0451 31.1744 11.9298 31.6176 11.6253 31.9151C11.3208 32.2126 10.8773 32.3153 10.4743 32.1817C8.78411 31.9043 7.30171 30.89 6.42333 29.4101C5.85889 28.2114 5.85889 26.8208 6.42333 25.6221C7.11815 24.1307 8.74378 23.1673 11.2478 22.6525C12.4267 22.3958 13.623 22.2281 14.8268 22.151ZM14.9471 3.61081C17.9321 2.36749 21.3671 3.05759 23.6495 5.35912C25.9318 7.66064 26.6116 11.12 25.3717 14.1231C24.1319 17.1262 21.2166 19.0811 17.9862 19.0758C13.582 19.0685 10.0154 15.472 10.0154 11.038L10.0228 10.6908C10.1558 7.57857 12.0687 4.80972 14.9471 3.61081ZM17.9862 5.29672C16.4715 5.29323 15.0176 5.89656 13.9453 6.97364C12.873 8.05071 12.2703 9.51303 12.2703 11.038C12.265 13.3667 13.6543 15.469 15.7898 16.3638C17.9252 17.2587 20.3859 16.7696 22.0233 15.1249C23.6608 13.4802 24.1522 11.004 23.2683 8.85212C22.3843 6.7002 20.2993 5.29672 17.9862 5.29672Z" fill="white"/>
</svg>
