<svg width="14" height="14" viewBox="0 0 14 14" fill="none" xmlns="http://www.w3.org/2000/svg">
<path d="M13.6718 12.9201L10.3468 9.59577C11.3105 8.43878 11.7911 6.95479 11.6885 5.45251C11.586 3.95023 10.9082 2.54532 9.79615 1.53005C8.68413 0.514775 7.2235 -0.0327003 5.71812 0.00151208C4.21273 0.0357245 2.77848 0.648991 1.71374 1.71374C0.648991 2.77848 0.0357245 4.21273 0.00151208 5.71812C-0.0327003 7.2235 0.514775 8.68413 1.53005 9.79615C2.54532 10.9082 3.95023 11.586 5.45251 11.6885C6.95479 11.7911 8.43878 11.3105 9.59577 10.3468L12.9201 13.6718C12.9694 13.7211 13.028 13.7603 13.0925 13.787C13.157 13.8137 13.2261 13.8275 13.2959 13.8275C13.3657 13.8275 13.4349 13.8137 13.4993 13.787C13.5638 13.7603 13.6224 13.7211 13.6718 13.6718C13.7211 13.6224 13.7603 13.5638 13.787 13.4993C13.8137 13.4349 13.8275 13.3657 13.8275 13.2959C13.8275 13.2261 13.8137 13.157 13.787 13.0925C13.7603 13.028 13.7211 12.9694 13.6718 12.9201ZM1.07718 5.85843C1.07718 4.91279 1.35759 3.98838 1.88296 3.20211C2.40833 2.41584 3.15506 1.80301 4.02872 1.44113C4.90238 1.07925 5.86373 0.984563 6.7912 1.16905C7.71868 1.35353 8.57061 1.8089 9.23928 2.47757C9.90795 3.14624 10.3633 3.99818 10.5478 4.92565C10.7323 5.85312 10.6376 6.81447 10.2757 7.68813C9.91385 8.56179 9.30102 9.30852 8.51475 9.83389C7.72848 10.3593 6.80407 10.6397 5.85843 10.6397C4.59079 10.6383 3.37548 10.1341 2.47913 9.23773C1.58277 8.34138 1.07858 7.12606 1.07718 5.85843Z" fill="#878787"/>
</svg>
