<svg width="13" height="16" viewBox="0 0 13 16" fill="none" xmlns="http://www.w3.org/2000/svg">
<path d="M2.09426 5.21159C1.98684 4.84626 1.88303 4.48033 1.8052 4.12974C1.52685 3.96796 1.29886 3.73204 1.14664 3.44834C0.994426 3.16464 0.923965 2.84428 0.943081 2.52289C0.962197 2.20151 1.07016 1.89172 1.25493 1.62806C1.4397 1.36441 1.69402 1.15727 1.98959 1.02963C2.28516 0.901989 2.61039 0.858911 2.929 0.905177C3.24762 0.951444 3.54712 1.08526 3.79417 1.2917C4.04123 1.49814 4.22613 1.76906 4.32828 2.07438C4.43043 2.3797 4.4458 2.70735 4.37272 3.0209C4.54165 3.4087 4.6814 3.80858 4.79076 4.21719C5.13125 3.76135 5.31525 3.20765 5.31533 2.63867C5.31541 2.0697 5.13156 1.516 4.79119 1.06005C4.45082 0.604112 3.9722 0.27044 3.42668 0.108764C2.88116 -0.0529128 2.29798 -0.0339214 1.76414 0.162932C1.23031 0.359786 0.77439 0.72387 0.464434 1.20101C0.154478 1.67814 0.00707265 2.24276 0.0441989 2.81052C0.0813252 3.37829 0.301023 3.91886 0.670474 4.35157C1.03993 4.78427 1.53933 5.08593 2.09426 5.21159Z" fill="#152A61"/>
<path d="M0.268519 11.4702C0.920079 10.7659 1.65129 11.0417 2.63014 11.1907C3.47106 11.32 4.29912 11.084 4.24394 10.6298C4.15693 9.89489 4.03432 9.56645 3.75566 8.6146C3.53315 7.85776 3.11088 6.4932 2.72656 5.1889C2.21147 3.44388 2.06257 2.6336 2.74782 2.43126C3.4864 2.21642 3.90989 3.26557 4.29358 4.72065C4.73059 6.37675 4.96042 7.10798 5.08913 7.06926C5.31594 7.00427 5.0058 6.29568 5.59911 6.12103C6.34076 5.90525 6.48415 6.48507 6.69197 6.42687C6.89973 6.36437 6.82926 5.77718 7.42071 5.60432C8.01524 5.43269 8.31376 6.1646 8.55892 6.09165C8.80164 6.01992 8.79614 5.75574 9.16264 5.65096C9.52978 5.54188 10.9113 6.16024 11.702 8.86141C12.6943 12.2576 11.5764 12.889 11.9153 14.0388L7.48566 15.7233C7.12712 14.8609 6.01648 14.7971 5.03396 14.2473C4.04407 13.6902 3.37172 12.6047 0.791941 12.6574C-0.178319 12.677 -0.132358 11.9035 0.268519 11.4702Z" fill="#152A61"/>
</svg>
