<svg width="30" height="30" viewBox="0 0 30 30" fill="none" xmlns="http://www.w3.org/2000/svg">
<path d="M29.4 24.0001C28.7889 24 28.1849 23.8688 27.6288 23.6155C27.0555 23.355 26.4333 23.2192 25.8036 23.2171C25.1726 23.2196 24.5491 23.3553 23.9742 23.6155C23.4181 23.8687 22.8143 23.9997 22.2033 23.9997C21.5923 23.9997 20.9885 23.8687 20.4324 23.6155C19.8572 23.3568 19.2343 23.2211 18.6036 23.2171C17.9726 23.22 17.3493 23.3558 16.7742 23.6155C16.2171 23.8686 15.6122 23.9996 15.0003 23.9996C14.3884 23.9996 13.7835 23.8686 13.2264 23.6155C12.6541 23.3558 12.0333 23.22 11.4048 23.2171C10.774 23.22 10.1509 23.3558 9.57601 23.6155C9.01903 23.8688 8.41427 23.9998 7.80241 23.9998C7.19055 23.9998 6.58578 23.8688 6.02881 23.6155C5.45411 23.3553 4.83087 23.2195 4.20001 23.2171C3.57139 23.2207 2.95056 23.3564 2.37781 23.6155C1.81919 23.8683 1.21318 23.9994 0.600006 24.0001V21.3625C1.21224 21.359 1.81728 21.2302 2.37781 20.9839C2.94902 20.7195 3.57058 20.5816 4.20001 20.5795C4.85161 20.5795 5.47621 20.7295 6.02881 20.9839C6.58617 21.2302 7.18827 21.359 7.79761 21.3625C8.41014 21.36 9.01556 21.2311 9.57601 20.9839C10.1493 20.7188 10.7732 20.5809 11.4048 20.5795C12.0516 20.5795 12.6732 20.7295 13.2264 20.9839C13.7862 21.2304 14.3907 21.3593 15.0024 21.3625C15.6127 21.3593 16.2159 21.2304 16.7742 20.9839C17.3477 20.7189 17.9718 20.5809 18.6036 20.5795C19.2474 20.5795 19.8714 20.7295 20.4324 20.9839C20.9694 21.2197 21.5724 21.3625 22.2024 21.3625C22.8128 21.3598 23.416 21.2309 23.9742 20.9839C24.5476 20.7184 25.1717 20.5804 25.8036 20.5795C26.4552 20.5795 27.0786 20.7295 27.6288 20.9839C28.1868 21.2308 28.7898 21.3597 29.4 21.3625V24.0001ZM25.2288 16.5385C27.12 16.5385 28.6548 15.0085 28.6548 13.1317C28.6548 11.2531 27.12 9.7309 25.2288 9.7309C23.3346 9.7309 21.8016 11.2537 21.8016 13.1317C21.8016 15.0085 23.1984 16.5385 25.2288 16.5385ZM5.27461 18.4537C5.54041 18.5167 5.79121 18.6085 6.02941 18.7153C6.58573 18.9661 7.18857 19.0971 7.79881 19.0999C8.42881 19.0999 9.04021 18.9571 9.57661 18.7153C10.1508 18.4527 10.774 18.3144 11.4054 18.3097C12.0522 18.3097 12.675 18.4669 13.227 18.7153C13.7856 18.9664 14.3906 19.0974 15.003 19.0999C15.627 19.0999 16.2378 18.9571 16.7742 18.7153C17.3486 18.4527 17.972 18.3145 18.6036 18.3097C19.248 18.3097 19.8726 18.4669 20.4324 18.7153C20.97 18.9565 21.5724 19.0999 22.2036 19.0999C22.6626 19.0999 23.1048 19.0225 23.5218 18.8923L17.8068 8.6587L24.4542 7.4545C25.4298 7.2697 26.1378 6.5089 26.1378 5.5351C26.1378 4.4611 25.2576 3.6001 24.1806 3.6001L23.9586 3.6067L13.6902 5.4619C12.9696 5.6257 12.015 6.6733 12.5586 7.9585L12.6462 8.1655L15.3258 12.9673L5.27461 18.4537Z" fill="#9787FD"/>
</svg>
