<svg width="30" height="30" viewBox="0 0 30 30" fill="none" xmlns="http://www.w3.org/2000/svg">
<path opacity="0.4" d="M13.8759 5.41194L28.039 4.8728C29.1218 4.8728 29.9997 5.99283 29.9997 7.37427C29.9997 8.7557 29.1218 9.87573 28.039 9.87573L13.8759 9.33659C13.0265 9.33659 12.3378 8.45799 12.3378 7.37427C12.3378 6.28872 13.0265 5.41194 13.8759 5.41194Z" fill="white"/>
<path d="M0.344747 5.98516C0.397861 5.9134 0.596288 5.61015 0.78269 5.35835C1.87003 3.78117 4.70916 1.20218 6.19436 0.412909C6.41984 0.287006 6.99007 0.0189532 7.29573 0C7.58736 0 7.86596 0.0907047 8.13153 0.269406C8.46325 0.51986 8.72782 0.91517 8.87413 1.38088C8.96734 1.70308 9.11365 2.67105 9.11365 2.68865C9.25896 3.74597 9.33813 5.4653 9.33813 7.36603C9.33813 9.17471 9.25896 10.8236 9.13971 11.8986C9.12668 11.9175 8.98036 13.1183 8.82102 13.5299C8.52939 14.2826 7.95916 14.7483 7.34885 14.7483H7.29573C6.89787 14.7307 6.06207 14.2636 6.06207 14.2474C4.65604 13.4581 1.88406 11.0037 0.769662 9.37237C0.769662 9.37237 0.454983 8.95269 0.318689 8.6914C0.106231 8.31505 1.90735e-06 7.84934 1.90735e-06 7.38363C1.90735e-06 6.86377 0.11926 6.38047 0.344747 5.98516Z" fill="white"/>
<path opacity="0.4" d="M16.1238 24.5881L1.9607 25.1272C0.877904 25.1272 1.05709e-08 24.0072 2.36089e-08 22.6257C3.66469e-08 21.2443 0.877905 20.1243 1.9607 20.1243L16.1238 20.6634C16.9732 20.6634 17.6619 21.542 17.6619 22.6257C17.6619 23.7113 16.9732 24.5881 16.1238 24.5881Z" fill="white"/>
<path d="M29.6551 24.0148C29.602 24.0866 29.4035 24.3898 29.2171 24.6417C28.1298 26.2188 25.2907 28.7978 23.8055 29.5871C23.58 29.713 23.0098 29.981 22.7041 30C22.4125 30 22.1339 29.9093 21.8683 29.7306C21.5366 29.4801 21.272 29.0848 21.1257 28.6191C21.0325 28.2969 20.8862 27.329 20.8862 27.3114C20.7409 26.254 20.6617 24.5347 20.6617 22.634C20.6617 20.8253 20.7409 19.1764 20.8601 18.1014C20.8732 18.0825 21.0195 16.8817 21.1788 16.4701C21.4704 15.7174 22.0407 15.2517 22.651 15.2517L22.7041 15.2517C23.102 15.2693 23.9378 15.7364 23.9378 15.7526C25.3438 16.5419 28.1158 18.9963 29.2302 20.6276C29.2302 20.6276 29.5448 21.0473 29.6811 21.3086C29.8936 21.685 29.9998 22.1507 29.9998 22.6164C29.9998 23.1362 29.8806 23.6195 29.6551 24.0148Z" fill="white"/>
</svg>
