<svg width="18" height="18" viewBox="0 0 18 18" fill="none" xmlns="http://www.w3.org/2000/svg">
<path d="M8.74902 0.5C10.9358 0.505023 13.0319 1.3756 14.5781 2.92188C16.1244 4.46815 16.995 6.56423 17 8.75098C16.9998 10.3823 16.5156 11.9766 15.6094 13.333C14.7029 14.6897 13.4147 15.7476 11.9072 16.3721C10.3998 16.9965 8.74091 17.1601 7.14062 16.8418C5.54028 16.5235 4.0698 15.7378 2.91602 14.584C1.76223 13.4302 0.976531 11.9597 0.658203 10.3594C0.339922 8.75909 0.50353 7.10021 1.12793 5.59277C1.75236 4.08531 2.8103 2.79714 4.16699 1.89062C5.52338 0.984367 7.11775 0.500194 8.74902 0.5ZM12.8564 4.88477C12.6693 4.91286 12.491 4.98282 12.335 5.08984C12.2017 5.18123 12.0887 5.29825 12 5.43262L7.91992 9.48438L5.46289 7.03613C5.34839 6.91998 5.21185 6.82709 5.06152 6.76367C4.90914 6.69946 4.74543 6.66603 4.58008 6.66602C4.41453 6.66602 4.25019 6.69933 4.09766 6.76367C3.94704 6.82725 3.81091 6.92059 3.69629 7.03711C3.46234 7.27145 3.33108 7.58879 3.33105 7.91992C3.33105 8.25117 3.46221 8.56934 3.69629 8.80371L3.69824 8.80566L7.03906 12.1055C7.27322 12.3383 7.58966 12.4697 7.91992 12.4697C8.25117 12.4697 8.56934 12.3376 8.80371 12.1035L13.7803 7.12598C13.9129 7.02855 14.027 6.90792 14.1123 6.7666C14.2101 6.60451 14.27 6.42195 14.2871 6.2334C14.3042 6.04492 14.278 5.85472 14.2109 5.67773C14.1439 5.50077 14.0371 5.34178 13.8994 5.21191C13.7617 5.08199 13.5967 4.98438 13.416 4.92773C13.2353 4.8711 13.0437 4.8567 12.8564 4.88477Z" stroke="#898989"/>
</svg>
