<svg width="30" height="30" viewBox="0 0 30 30" fill="none" xmlns="http://www.w3.org/2000/svg">
<g clip-path="url(#clip0_1718_14993)">
<path d="M15 8.63906C17.3813 8.63906 19.3172 6.70312 19.3172 4.32188C19.3172 1.93594 17.3813 0 15 0C12.6188 0 10.6828 1.93594 10.6828 4.31719C10.6828 6.69844 12.6188 8.63906 15 8.63906ZM7.10625 19.3875H11.3297C14.0953 19.2563 14.5828 17.5359 14.6297 17.3344C14.6625 17.1609 14.8125 17.0391 14.9953 17.0391C15.1734 17.0391 15.3234 17.1609 15.3609 17.3391C15.3656 17.3578 15.7828 19.2516 18.6844 19.3875H22.8844C23.4 19.3875 23.8031 18.9844 23.8031 18.4688V15.1781C23.8828 11.5312 18.1125 10.7203 15.6281 10.5422L15.4922 10.5328L16.9078 15.2906L20.85 16.4531C21.0469 16.5141 21.1594 16.7203 21.1031 16.9172C21.0734 17.0111 21.0085 17.0899 20.922 17.1371C20.8355 17.1843 20.7341 17.1962 20.6391 17.1703L16.5 15.9469C16.4411 15.9295 16.3875 15.8977 16.3441 15.8543C16.3007 15.8109 16.2689 15.7573 16.2516 15.6984L14.9719 11.4094L13.0594 15.7922C13.0172 15.8859 12.9375 15.9609 12.8391 15.9984L9.34688 17.1703C9.31875 17.1797 9.28125 17.1891 9.23438 17.1891C9.075 17.1891 8.93438 17.0859 8.88282 16.9359C8.85 16.8422 8.85469 16.7391 8.90157 16.65C8.94844 16.5609 9.02344 16.4953 9.11719 16.4672L12.4453 15.3516L14.5453 10.5375L14.3906 10.5469C11.8969 10.7203 6.09844 11.5219 6.17813 15.1688V18.4781C6.19219 18.975 6.60469 19.3875 7.10625 19.3875ZM24.7688 24.9047C24.225 24.4594 23.5594 24.2156 22.8094 24.1875L22.7531 24.1828C22.5188 24.1828 22.2797 24.2062 22.0359 24.2578L17.925 25.3922L18.2109 25.4906C19.5094 25.9359 20.3016 26.9203 20.2828 28.0594C20.2688 28.7437 19.9688 29.3578 19.4156 29.8359L19.2188 30H22.7109C24.4313 30 25.8281 28.6969 25.8281 27.0938C25.8328 26.2547 25.4438 25.4578 24.7688 24.9047Z" fill="#FDE482"/>
<path d="M17.6437 26.1047C17.2312 26.0062 16.7812 25.9172 16.2937 25.8375L16.0453 25.7953H16.0406C16.0172 25.7906 15.9984 25.7859 15.9656 25.7766L7.65468 24.1734C7.52812 24.15 7.40625 24.1313 7.26093 24.1219C7.2375 24.1219 7.20937 24.1172 7.18125 24.1125L7.17187 24.1078H7.13437C7.05 24.1031 6.96562 24.0984 6.88593 24.0984C6.17812 24.0984 5.55 24.3047 5.08125 24.6984C4.49062 25.1906 4.17656 25.9266 4.17656 26.8359C4.17656 28.5844 5.59687 30.0047 7.34531 30.0047H16.8562C16.8703 30.0047 17.1703 29.9813 17.5734 29.9016C18.75 29.6672 19.5187 28.9453 19.5422 28.05C19.5516 27.1453 18.8109 26.3859 17.6437 26.1047ZM18.675 20.1328C16.6078 20.0391 15.5766 19.1578 15.075 18.4406L15 18.3281L14.925 18.4406C14.4281 19.1578 13.4062 20.0391 11.3531 20.1328H9.83906V21.8109C9.83906 21.9141 9.79218 22.0172 9.7125 22.0922L8.10937 23.4938L16.0969 25.4578L16.1812 25.4719L16.2094 25.4813L21.9141 23.5172L20.2875 22.0922C20.2481 22.0566 20.2166 22.0132 20.1948 21.9648C20.173 21.9164 20.1615 21.864 20.1609 21.8109V20.1328H18.675Z" fill="#FDE482"/>
</g>
<defs>
<clipPath id="clip0_1718_14993">
<rect width="30" height="30" fill="white"/>
</clipPath>
</defs>
</svg>
